<?xml version="1.0" encoding="UTF-8" standalone="no"?>
<!-- Created with Inkscape (http://www.inkscape.org/) -->

<svg
   width="265.5744mm"
   height="258.60724mm"
   viewBox="0 0 265.57441 258.60727"
   version="1.1"
   id="svg1"
   inkscape:version="1.4.3 (0d15f75042, 2025-12-25)"
   sodipodi:docname="drawing.svg"
   xmlns:inkscape="http://www.inkscape.org/namespaces/inkscape"
   xmlns:sodipodi="http://sodipodi.sourceforge.net/DTD/sodipodi-0.dtd"
   xmlns:xlink="http://www.w3.org/1999/xlink"
   xmlns="http://www.w3.org/2000/svg"
   xmlns:svg="http://www.w3.org/2000/svg">
  <sodipodi:namedview
     id="namedview1"
     pagecolor="#2a2b2f"
     bordercolor="#000000"
     borderopacity="0.25"
     inkscape:showpageshadow="2"
     inkscape:pageopacity="0.0"
     inkscape:pagecheckerboard="0"
     inkscape:deskcolor="#d1d1d1"
     inkscape:document-units="mm"
     inkscape:zoom="0.56769061"
     inkscape:cx="758.33561"
     inkscape:cy="703.7284"
     inkscape:window-width="1920"
     inkscape:window-height="1080"
     inkscape:window-x="0"
     inkscape:window-y="0"
     inkscape:window-maximized="1"
     inkscape:current-layer="layer1" />
  <defs
     id="defs1">
    <linearGradient
       id="linearGradient1"
       inkscape:collect="always">
      <stop
         style="stop-color:#b63e76;stop-opacity:1;"
         offset="0"
         id="stop1" />
      <stop
         style="stop-color:#e39091;stop-opacity:1;"
         offset="0.24453701"
         id="stop3" />
      <stop
         style="stop-color:#73caaa;stop-opacity:1;"
         offset="0.47508264"
         id="stop4" />
      <stop
         style="stop-color:#5a76d4;stop-opacity:1;"
         offset="0.71164858"
         id="stop5" />
      <stop
         style="stop-color:#8051c2;stop-opacity:1;"
         offset="0.85288382"
         id="stop6" />
      <stop
         style="stop-color:#bc81e6;stop-opacity:1;"
         offset="1"
         id="stop2" />
    </linearGradient>
    <linearGradient
       inkscape:collect="always"
       xlink:href="#linearGradient1"
       id="linearGradient2"
       x1="-10928.486"
       y1="5981.624"
       x2="26356.043"
       y2="5981.624"
       gradientUnits="userSpaceOnUse" />
  </defs>
  <g
     inkscape:label="Layer 1"
     inkscape:groupmode="layer"
     id="layer1"
     transform="translate(5304.5758,10092.13)">
    <path
       sodipodi:type="spiral"
       style="fill:url(#linearGradient2);fill-rule:evenodd;stroke:#000000;stroke-width:10.7818"
       id="path1"
       sodipodi:cx="7445.6016"
       sodipodi:cy="6250.6284"
       sodipodi:expansion="1"
       sodipodi:revolution="17.691917"
       sodipodi:radius="19037.615"
       sodipodi:argument="-66.44117"
       sodipodi:t0="0"
       d="m 7445.6016,6250.6284 c -78.8121,39.8084 -147.7844,-45.2171 -152.4724,-116.9417 -2.8591,-43.7418 8.8844,-85.6517 31.185,-123.1808 26.7448,-45.0079 68.3333,-82.0041 114.742,-105.6929 164.2038,-83.8162 362.8589,-23.0694 486.7905,103.2408 275.8249,281.1188 169.1023,733.5748 -116.3832,962.9423 -418.9568,336.6023 -1024.2311,180.2724 -1324.3521,-235.2184 -399.9521,-553.6979 -192.1826,-1316.5619 354.0535,-1685.762 687.2548,-464.5144 1609.7078,-204.4881 2047.172,472.8888 531.1583,822.4544 219.4647,1901.7908 -591.7241,2408.5818 C 7339.08,8528.4563 6099.13,8164.0295 5524.6212,7220.927 5173.2063,6644.0512 5114.1226,5920.8706 5349.5426,5289.6516 c 186.8647,-501.0302 545.7562,-926.1905 1004.473,-1200.1261 649.4981,-387.866 1459.5637,-448.5917 2164.6767,-179.4963 556.1072,212.2297 1026.79,614.9426 1328.1348,1127.726 424.3509,722.096 486.7189,1619.0788 183.9139,2398.0779 -237.5761,611.19 -684.119,1127.4024 -1250.9788,1456.1434 C 7985.0855,9352.8361 7001.1618,9416.8482 6148.2829,9080.308 5482.0054,8817.3995 4920.2584,8327.02 4564.131,7706.0763 4066.7434,6838.8317 4001.0874,5767.9496 4371.3818,4841.1958 c 288.2306,-721.3687 822.4514,-1328.6542 1497.4845,-1712.1605 939.8031,-533.93 2097.6573,-601.2305 3098.2818,-197.1669 776.4629,313.5446 1429.2899,891.6105 1840.1689,1620.7374 570.484,1012.354 639.429,2257.1912 201.585,3331.6832 -338.852,831.5594 -960.766,1529.9306 -1743.9905,1968.1777 C 8176.1653,10461.666 6852.2673,10531.781 5699.8271,10058.469 4813.1691,9694.3144 4069.2518,9028.5496 3603.6408,8191.2256 2957.732,7029.6662 2885.9833,5619.3211 3393.2209,4392.74 3782.6735,3450.9818 4492.2909,2661.5167 5383.717,2168.5451 6618.0859,1485.921 8114.884,1412.5382 9415.604,1953.7076 c 996.86,414.7472 1831.874,1168.2188 2352.203,2113.7489 719.345,1307.1752 794.362,2890.4312 219.256,4265.2883 -440.039,1051.9626 -1237.367,1932.5272 -2237.0022,2480.2122 -1379.9788,756.069 -3049.6969,832.721 -4498.6896,223.673 C 4144.3047,10571.301 3218.1893,9730.1174 2643.1506,8676.375 1850.3526,7223.5948 1772.0658,5467.4111 2415.0601,3944.2841 2905.6754,2782.1129 3790.7173,1810.4455 4898.5677,1208.0549 6424.1474,378.52513 8266.7997,298.60322 9864.0598,975.54671 11081.337,1491.4474 12098.557,2420.348 12728.298,3582.3072 c 866.264,1598.3775 947.821,3527.5011 236.925,5198.8934 -541.184,1272.3834 -1513.944,2335.1564 -2730.013,2992.2464 -1671.1739,903.001 -3686.771,986.194 -5432.2946,241.344 C 3475.4257,11448.324 2367.0984,10431.704 1682.6604,9161.5243 742.91998,7417.5551 658.09183,5315.4824 1436.8992,3495.8283 2028.6473,2113.2313 3089.128,959.34965 4413.4184,247.56466 6230.1817,-728.91668 8418.7316,-815.38052 10312.516,-2.6141375 11750.22,614.41405 12949.657,1718.756 13688.788,3097.1579 c 1013.224,1889.5565 1101.323,4164.5853 254.596,6132.4985 -642.307,1492.8126 -1790.511,2737.8046 -3223.025,3504.2806 -1962.3485,1049.968 -4323.8575,1139.704 -6365.8994,259.014 C 2806.538,12325.366 1515.9911,11133.3 722.17016,9646.6736 -364.54333,7611.5331 -455.91479,5163.5426 458.73837,3047.3725 1151.6018,1444.342 2387.5297,108.23935 3928.2691,-712.92554 6040.1305,-1838.4802 8566.5845,-1931.1641 10760.971,-980.77498 c 1658.14,718.14036 3039.799,1997.93098 3888.307,3592.78358 1162.373,2184.7918 1256.688,4797.4467 272.267,7066.1037 -743.417,1713.2487 -2067.07,3140.4637 -3716.036,4016.3147 C 8947.7871,14893.62 6248.9304,14989.565 3906.0037,13971.112 2137.6449,13202.42 664.87348,11834.903 -238.32005,10131.823 -1474.3329,7801.1719 -1571.9088,5016.1126 -519.42247,2598.9166 274.54538,775.44787 1685.9257,-742.88025 3443.1198,-1673.4157 c 2403.5798,-1272.834 5274.8425,-1372.0407 7766.3072,-285.5201 1878.579,819.2427 3442.464,2274.48667 4400.341,4085.7951 1309.656,2476.5084 1410.494,5433.9751 289.938,7999.7087 -844.517,1933.689 -2343.625,3543.131 -4209.048,4528.35 -2549.4365,1346.478 -5593.1079,1448.946 -8233.1101,294.355 C 1468.7481,14079.482 -186.25105,12536.51 -1198.8102,10616.972 -2582.1116,7994.6079 -2686.2109,4864.7312 -1497.5833,2150.4608 -602.51831,106.55032 984.31787,-1594.0062 2957.9705,-2633.9059 c 2695.2918,-1420.125 5911.3742,-1525.8554 8699.9125,-303.1908 2099.021,920.3385 3845.135,2551.03903 4912.375,4578.8067 1456.95,2768.219 1564.311,6070.5078 307.609,8933.314 -945.612,2154.132 -2620.177,3945.804 -4702.06,5040.384 -2841.1456,1493.774 -6229.6411,1602.766 -9166.7149,312.026 C 799.84869,14956.55 -1037.3804,13238.12 -2159.3004,11102.121 -3689.8993,8188.0488 -3800.5229,4713.3462 -2475.7442,1702.005 c 996.1571,-2264.35463 2758.45163,-4147.1415 4948.5654,-5296.4011 2986.9991,-1567.4243 6547.9093,-1679.6791 9633.5178,-320.8614 2319.466,1021.4294 4247.811,2827.5889 5424.41,5071.8182 1604.25,3059.9254 1718.136,6707.0436 325.279,9866.9193 -1046.702,2374.577 -2896.726,4348.48 -5195.071,5552.418 C 9528.1051,18216.974 5794.7787,18332.492 2560.6362,16905.595 130.94736,15833.621 -1888.5134,13939.732 -3119.7906,11587.271 -3946.728,10007.336 -4406.88,8258.338 -4465.8181,6476.0797 c -59.3505,-1794.7274 286.5042,-3579.7837 1011.9131,-5222.5306 1097.2453,-2484.8005 3035.00007,-4549.8193 5441.5769,-5808.4354 1616.0092,-845.1571 3404.7224,-1315.1675 5227.3875,-1374.8725 1835.1344,-60.1135 3660.2506,294.0904 5339.7356,1036.3404 2539.912,1122.517 4650.489,3104.137 5936.444,5564.82979 863.377,1652.08351 1343.246,3480.51201 1403.717,5343.58411 60.877,1875.5413 -301.676,3740.7176 -1060.767,5456.9405 -1150.328,2600.765 -3167.703,4748.249 -5688.083,6064.452 -1688.158,881.597 -3556.3017,1371.324 -5459.7806,1432.563 -1915.9483,61.639 -3821.1847,-309.263 -5574.145,-1085.195 C -543.81335,16708.103 -2736.6814,14647.032 -4080.2808,12072.42 -4980.0971,10348.188 -5479.6831,8440.3289 -5541.6883,6496.443 -5604.0912,4540.0879 -5224.84,2594.7914 -4432.0659,805.09331 -3231.0884,-1906.1294 -1126.3202,-4144.3808 1502.5226,-5515.3765 3262.829,-6433.4127 5210.4033,-6942.8572 7194.6961,-7005.629 c 1996.7622,-63.1661 3982.1189,324.4342 5808.5549,1134.0498 2766.451,1226.3022 5050.086,3374.7673 6448.478,6057.84129 936.256,1796.38071 1455.559,3783.67031 1519.097,5808.37001 63.93,2037.1691 -332.019,4062.5859 -1158.477,5925.7589 -1251.626,2821.681 -3443.788,5150.699 -6181.094,6576.487 -1832.455,954.476 -3859.4596,1483.638 -5924.5663,1547.943 -2077.5761,64.693 -4143.0527,-339.606 -6042.9641,-1182.905 -2876.9099,-1276.951 -5251.3117,-3512.81 -6704.4957,-6304.347 -972.696,-1868.529 -1511.7163,-3935.249 -1576.7873,-6040.7626 -65.4564,-2117.9831 347.1914,-4223.5198 1207.3317,-6160.16893 1302.2757,-2932.13907 3581.8318,-5351.92437 6427.6,-6832.50417 1904.6033,-990.9161 4011.0389,-1539.7951 6156.9595,-1605.6324 2158.39,-66.2199 4303.9872,354.777 6277.3732,1231.759 2987.369,1327.6 5452.538,3650.8532 6960.513,6550.85288 1009.136,1940.67752 1567.874,4086.82852 1634.478,6273.15602 66.983,2198.797 -362.363,4384.4542 -1256.187,6394.5782 -1352.924,3042.598 -3719.874,5553.15 -6674.105,7088.522 -1976.752,1027.356 -4162.6185,1595.952 -6389.353,1663.322 -2239.204,67.747 -4464.921,-369.948 -6511.7833,-1280.614 -3097.8268,-1378.248 -5653.763,-3788.895 -7216.53,-6797.358 -1045.5763,-2012.826 -1624.0314,-4238.4078 -1692.1673,-6505.5493 -68.5107,-2279.611 377.5337,-4545.3881 1305.041,-6628.98806 C -4984.8154,-3244.8746 -2530.4705,-5846.1945 532.22394,-7436.3569 2581.1239,-8500.1535 4846.421,-9088.4673 7153.9694,-9157.3693 c 2320.0181,-69.2743 4625.8556,385.1192 6746.1926,1329.4684 3208.286,1428.896 5854.99,3926.9383 7472.547,7043.86437 1082.017,2084.97413 1680.19,4389.98653 1749.858,6737.94193 70.038,2360.4251 -392.705,4706.3226 -1353.896,6863.3976 -1454.22,3263.515 -3995.959,5955.603 -7167.117,7600.556 -2121.048,1100.237 -4465.776,1708.268 -6854.1386,1778.702 -2400.8321,70.802 -4786.7895,-400.29 -6980.60249,-1378.323 C -2551.9317,19338.695 -5289.4029,16753.258 -6961.7515,13527.868 -8080.2087,11370.746 -8698.0987,8986.3025 -8769.2988,6557.5331 -8840.8644,4116.294 -8361.4234,1690.2764 -7366.5484,-540.27419 -5861.6812,-3914.2483 -3232.5468,-6697.1033 47.074638,-8396.8471 2240.271,-9533.5247 4664.4296,-10161.273 7133.6061,-10233.239 c 2481.6461,-72.33 4947.7239,415.4602 7215.0119,1427.1772 3429.204,1530.1909 6257.443,4203.0227 7984.582,7536.876 1154.898,2229.27044 1792.505,4693.1444 1865.237,7202.7279 73.093,2522.0531 -423.046,5028.1909 -1451.605,7332.2169 -1555.514,3484.433 -4272.044,6358.056 -7660.129,8112.59 -2265.344,1173.118 -4768.934,1820.585 -7318.9243,1894.082 C 5205.3185,23346.289 2659.1206,22841.8 318.35708,21796.399 -3221.3058,20215.561 -6140.3124,17455.334 -7922.2417,14013.017 -9113.5802,11711.599 -9770.9054,9168.2939 -9845.1689,6577.8964 -9919.79,3975.0292 -9406.9524,1388.7712 -8344.7092,-988.73003 -6738.5481,-4583.6226 -3934.6236,-7548.0131 -438.07467,-9357.3373 1899.418,-10566.896 4482.4382,-11234.08 7113.2427,-11309.11 c 2643.2743,-75.385 5269.5923,445.802 7683.8313,1524.8874 3650.122,1631.4845 6659.897,4479.1066 8496.616,8029.8875 1227.779,2373.56663 1904.822,4996.3023 1980.617,7667.5139 76.149,2683.6813 -453.387,5350.0592 -1549.314,7801.0362 -1656.808,3705.352 -4548.128,6760.51 -8153.141,8624.624 -2409.64,1246 -5072.091,1932.902 -7783.7099,2009.463 C 5064.0537,24425.215 2357.6153,23887.329 -130.09876,22774.56 -3890.6804,21092.429 -6991.2228,18157.412 -8882.7319,14498.167 -10146.952,12052.452 -10843.712,9350.2854 -10921.039,6598.2598 c -77.677,-2764.4954 468.557,-5510.994 1598.1689,-8035.4457 1707.4542,-3815.8114 4686.1692,-6961.7378 8399.64612,-8880.6421 2481.78878,-1282.44 5223.67068,-1989.059 8016.10338,-2067.152 2804.9024,-78.441 5591.4616,476.143 8152.6506,1622.597 3871.041,1732.7768 7062.351,4755.1896 9008.65,8522.8986 2006.724,3884.6827 2599.819,8376.482 1678.273,12650.0474 -691.073,3204.773 -2220.107,6205.783 -4404.174,8650.569"
       transform="matrix(0.00649284,0,0,0.00649281,-5220.1317,-10003.411)" />
  </g>
</svg>
