<?xml version="1.0" encoding="UTF-8" standalone="no"?>
<svg
   class="ionicon"
   viewBox="0 0 512 512"
   version="1.1"
   id="svg2"
   sodipodi:docname="unkn.svg"
   xml:space="preserve"
   inkscape:version="1.4.2 (ebf0e940d0, 2025-05-08)"
   xmlns:inkscape="http://www.inkscape.org/namespaces/inkscape"
   xmlns:sodipodi="http://sodipodi.sourceforge.net/DTD/sodipodi-0.dtd"
   xmlns="http://www.w3.org/2000/svg"
   xmlns:svg="http://www.w3.org/2000/svg"><defs
     id="defs2" /><sodipodi:namedview
     id="namedview2"
     pagecolor="#ffffff"
     bordercolor="#000000"
     borderopacity="0.25"
     inkscape:showpageshadow="2"
     inkscape:pageopacity="0.0"
     inkscape:pagecheckerboard="0"
     inkscape:deskcolor="#d1d1d1"
     inkscape:zoom="1.2758828"
     inkscape:cx="271.57666"
     inkscape:cy="277.84683"
     inkscape:window-width="1920"
     inkscape:window-height="1080"
     inkscape:window-x="0"
     inkscape:window-y="0"
     inkscape:window-maximized="1"
     inkscape:current-layer="svg2" /><path
     id="path1"
     d="M 82.722656 29.681641 A 12 12 0 0 0 70.722656 41.681641 L 70.722656 465.68164 A 12 12 0 0 0 82.722656 477.68164 L 410.72266 477.68164 A 12 12 0 0 0 422.72266 465.68164 L 422.72266 221.68164 L 345.92383 221.68164 C 328.38703 269.85954 261.54688 291.84565 261.54688 342.07031 L 218.14062 342.85938 C 218.14062 273.71011 272.50823 255.83962 291.09766 221.68164 L 238.72266 221.68164 A 8 8 0 0 1 230.72266 213.68164 L 230.72266 147.41211 C 208.22105 153.75337 191.53516 175.1869 191.53516 198.70508 L 163.87305 186.70898 C 163.87305 132.89264 182.51473 98.920508 230.72266 93.701172 L 230.72266 29.681641 L 82.722656 29.681641 z M 263.17969 363.69141 L 271.64062 403.66992 L 220.35938 412.13281 L 218.74805 364.49805 L 263.17969 363.69141 z " /><path
     id="path2"
     d="M 264.62695 37.371094 A 2 2 0 0 0 262.72266 39.371094 L 262.72266 94.556641 C 309.73597 102.65463 346.0617 141.38707 349.78125 189.68164 L 413.0332 189.68164 A 2 2 0 0 0 414.45312 186.27148 L 266.13281 37.951172 A 2 2 0 0 0 264.62695 37.371094 z M 262.72266 148.75586 L 262.72266 185.68164 A 4 4 0 0 0 266.72266 189.68164 L 296.60156 189.68164 C 293.60079 170.70869 280.34642 155.20999 262.72266 148.75586 z " /></svg>
