<?xml version="1.0" encoding="UTF-8" standalone="no"?>
<svg
   class="ionicon"
   viewBox="0 0 955.10241 716.85096"
   version="1.1"
   id="svg1"
   sodipodi:docname="light-dark.svg"
   width="955.10242"
   height="716.85095"
   inkscape:version="1.4 (e7c3feb100, 2024-10-09)"
   xmlns:inkscape="http://www.inkscape.org/namespaces/inkscape"
   xmlns:sodipodi="http://sodipodi.sourceforge.net/DTD/sodipodi-0.dtd"
   xmlns="http://www.w3.org/2000/svg"
   xmlns:svg="http://www.w3.org/2000/svg">
  <defs
     id="defs1" />
  <sodipodi:namedview
     id="namedview1"
     pagecolor="#41454d"
     bordercolor="#000000"
     borderopacity="0.25"
     inkscape:showpageshadow="2"
     inkscape:pageopacity="0.0"
     inkscape:pagecheckerboard="false"
     inkscape:deskcolor="#d1d1d1"
     inkscape:zoom="0.97398405"
     inkscape:cx="508.73523"
     inkscape:cy="337.27452"
     inkscape:window-width="1920"
     inkscape:window-height="1080"
     inkscape:window-x="0"
     inkscape:window-y="0"
     inkscape:window-maximized="1"
     inkscape:current-layer="svg1" />
  <path
     d="m 486.95191,592.43308 c -1.75051,128.28954 -163.54634,103.01006 -205.70082,26.28928 -21.32829,-38.8173 -59.47307,-36.57657 -73.38047,-44.73652 -25.79735,-15.1362 98.20971,-25.64866 35.07212,-68.31662 -34.23479,-23.13564 60.29243,-83.99296 36.00917,-121.23614 -18.87119,-28.9427 93.3448,-9.15224 18.6024,-86.1066 -18.03944,-18.57331 73.47631,-55.10597 69.3638,-80.33414 -3.81722,-23.41665 41.74085,52.16378 70.7777,42.00484 21.51137,-7.52604 25.17522,-83.5641 49.2561,-83.5641 z"
     id="path1"
     sodipodi:nodetypes="cssssssscc" />
  <path
     d="m 486.95223,592.43173 c 19.32533,0 24.59781,-40.57515 42.35188,-45.50577 19.77951,-5.49313 -1.93813,37.54171 14.99978,26.82016 12.01742,-7.60693 -10.53318,-44.53469 13.57851,-57.85154 22.3413,-12.33907 35.44505,54.38808 43.02754,43.64048 11.65878,-16.52544 56.53855,-26.13135 63.0167,-45.72176 3.13378,-9.47677 -65.1157,-52.62757 -58.65348,-77.32413 7.55283,-28.86455 77.82283,79.5999 89.67907,-52.05744 3.33595,-37.04399 -91.17394,24.32392 -108.27429,-5.88631 -15.129,-26.72754 161.60142,-82.97162 20.46901,-163.89349 -19.23352,-11.02803 -11.43326,58.57846 -33.15541,52.02601 -11.9146,-3.59402 51.76548,-70.59811 12.84125,-152.20394 -37.9225,-79.505689 -99.88056,-105.4026922 -99.88056,61.95773 z"
     id="path2"
     style="fill:#ffffff;fill-opacity:1"
     sodipodi:nodetypes="cssssssssssscc" />
</svg>
