<?xml version="1.0" encoding="UTF-8" standalone="no"?>
<!-- Created with Inkscape (http://www.inkscape.org/) -->

<svg
   width="17.554144mm"
   height="73.696098mm"
   viewBox="0 0 17.554144 73.696098"
   version="1.1"
   id="svg1"
   xmlns="http://www.w3.org/2000/svg"
   xmlns:svg="http://www.w3.org/2000/svg">
  <defs
     />
  <g
     id="layer1"
     transform="translate(-103.17563,-54.315171)">
    <g
       id="g11"
       transform="matrix(6.6154485,0,0,6.6154485,-655.15935,-382.64789)">
      <path
         id="rect1"
         style="fill:none;fill-rule:evenodd;stroke:#000000;stroke-width:0.215102;stroke-linecap:square;stroke-linejoin:bevel;paint-order:markers stroke fill"
         d="m 114.79986,66.169861 h 2.33374 c 7.7e-4,0 0.001,6.23e-4 0.001,0.0014 v 10.893327 c 0,7.75e-4 -6.3e-4,0.0014 -0.001,0.0014 h -2.33374 c -7.7e-4,0 -10e-4,-6.23e-4 -10e-4,-0.0014 v -10.89333 c 0,-7.74e-4 6.3e-4,-0.0014 10e-4,-0.0014 z" />
      <path
         style="fill:#000000;fill-opacity:1;fill-rule:evenodd;stroke:#000000;stroke-width:0.0829871;stroke-linecap:square;stroke-linejoin:bevel;stroke-opacity:1;paint-order:markers stroke fill"
         d="m 114.72712,77.115373 c -0.0545,-0.0349 -0.0547,-0.05841 -0.0547,-5.500971 0,-4.945658 0.004,-5.468546 0.0429,-5.493461 0.0378,-0.0242 0.18939,-0.02753 1.25249,-0.02753 0.90426,0 1.21779,0.0053 1.24233,0.02103 0.0254,0.01627 0.0328,1.264478 0.0328,5.511418 v 5.490385 l -0.0702,0.01709 c -0.0415,0.01013 -0.54278,0.01709 -1.2306,0.01709 -1.12401,0 -1.16219,-0.0011 -1.21516,-0.03504 z m 2.29714,-5.493461 v -5.3708 h -1.05286 -1.05285 v 5.3708 5.370801 h 1.05285 1.05286 z"
         />
      <path
         style="fill:#000000;fill-opacity:1;fill-rule:evenodd;stroke:#000000;stroke-width:0.118687;stroke-linecap:square;stroke-linejoin:bevel;stroke-opacity:1;paint-order:markers stroke fill"
         d="m 114.97857,71.61724 v -5.310441 h 1.00552 1.00553 v 5.310441 5.310441 h -1.00553 -1.00552 z"
         />
    </g>
  </g>
</svg>
