<?xml version="1.0" encoding="UTF-8" standalone="no"?>
<svg
   viewBox="0 0 512 512"
   version="1.1"
   id="svg1"
   sodipodi:docname="clr-pkr4.svg"
   width="512"
   height="512"
   inkscape:version="1.4.3 (0d15f75042, 2025-12-25)"
   xmlns:inkscape="http://www.inkscape.org/namespaces/inkscape"
   xmlns:sodipodi="http://sodipodi.sourceforge.net/DTD/sodipodi-0.dtd"
   xmlns="http://www.w3.org/2000/svg"
   xmlns:svg="http://www.w3.org/2000/svg">
  <defs
     id="defs1" />
  <sodipodi:namedview
     id="namedview1"
     pagecolor="#ffffff"
     bordercolor="#000000"
     borderopacity="0.25"
     inkscape:showpageshadow="2"
     inkscape:pageopacity="0.0"
     inkscape:pagecheckerboard="0"
     inkscape:deskcolor="#d1d1d1"
     inkscape:zoom="1.2588389"
     inkscape:cx="270.48735"
     inkscape:cy="261.74914"
     inkscape:window-width="1920"
     inkscape:window-height="1080"
     inkscape:window-x="0"
     inkscape:window-y="0"
     inkscape:window-maximized="1"
     inkscape:current-layer="svg1" />
  <path
     d="m 129.03396,375.193 c 7.41491,85.17917 255.18376,78.29063 258.8758,-7.13093 5.49602,-127.15968 5.66965,-179.54681 -10.80762,-247.64869 C 372.74519,102.40575 231.01182,73.288957 150.26875,105.52848 109.71599,170.4095 120.61138,278.43809 129.03396,375.193 Z M 312.22869,169.71526 c 11.86372,7.37694 18.7245,173.22889 -14.17406,176.121 -24.05188,2.1144 -4.05655,-82.87722 -22.59123,-81.1593 -21.03027,1.94922 19.94282,114.63911 -19.16646,111.31683 -26.87658,-2.28314 1.13328,-144.78159 -16.40277,-147.75017 -15.45889,-2.61694 -9.23798,144.75618 -32.82482,142.02826 -31.6468,-3.66009 -21.73093,-202.31113 -11.36889,-206.64472 16.24006,-6.79187 96.20479,-6.54915 116.52823,6.0881 z"
     id="path1"
     sodipodi:nodetypes="sssssssssssss"
     inkscape:export-filename="path1.svg"
     inkscape:export-xdpi="96"
     inkscape:export-ydpi="96" />
</svg>
