<?xml version="1.0" encoding="UTF-8" standalone="no"?>
<svg
   viewBox="0 0 151.83818 136.46802"
   width="151.83818"
   height="136.46802"
   color="#000000"
   fill="none"
   version="1.1"
   id="svg3"
   sodipodi:docname="dice.svg"
   inkscape:version="1.4.2 (ebf0e940d0, 2025-05-08)"
   xmlns:inkscape="http://www.inkscape.org/namespaces/inkscape"
   xmlns:sodipodi="http://sodipodi.sourceforge.net/DTD/sodipodi-0.dtd"
   xmlns="http://www.w3.org/2000/svg"
   xmlns:svg="http://www.w3.org/2000/svg">
  <defs
     id="defs3" />
  <sodipodi:namedview
     id="namedview3"
     pagecolor="#ffffff"
     bordercolor="#000000"
     borderopacity="0.25"
     inkscape:showpageshadow="2"
     inkscape:pageopacity="0.0"
     inkscape:pagecheckerboard="0"
     inkscape:deskcolor="#d1d1d1"
     inkscape:zoom="3.2994642"
     inkscape:cx="51.371978"
     inkscape:cy="98.046224"
     inkscape:window-width="1920"
     inkscape:window-height="1080"
     inkscape:window-x="0"
     inkscape:window-y="0"
     inkscape:window-maximized="1"
     inkscape:current-layer="svg3" />
  <path
     d="m 28.203039,98.438397 c 0,-7.896745 0,-11.844836 1.895104,-14.681365 0.82043,-1.227384 1.874641,-2.281593 3.102474,-3.102473 2.836248,-1.894768 6.784507,-1.894768 14.681024,-1.894768 7.896517,0 11.844775,0 14.681024,1.894768 1.227833,0.82088 2.282042,1.875089 3.102471,3.102473 1.895107,2.836529 1.895107,6.78462 1.895107,14.681365 0,7.896183 0,11.844833 -1.895107,14.680803 -0.820429,1.22794 -1.874638,2.28215 -3.102471,3.10247 -2.836249,1.89533 -6.784507,1.89533 -14.681024,1.89533 -7.896517,0 -11.844776,0 -14.681024,-1.89533 -1.227833,-0.82032 -2.282044,-1.87453 -3.102474,-3.10247 -1.895104,-2.83597 -1.895104,-6.78462 -1.895104,-14.680803 z"
     stroke="currentColor"
     stroke-width="8.43369"
     stroke-linejoin="round"
     id="path1" />
  <path
     d="m 91.191424,103.94278 c -5.82598,-5.825993 -8.738979,-8.738983 -9.384994,-12.24234 -0.253575,-1.374128 -0.253575,-2.782554 0,-4.156121 0.646015,-3.503915 3.559014,-6.416349 9.384994,-12.24234 5.825998,-5.825991 8.738997,-8.738986 12.242356,-9.385007 1.37356,-0.253571 2.78256,-0.253571 4.15612,0 3.50335,0.646021 6.41634,3.559016 12.24232,9.385007 5.826,5.825991 8.739,8.738425 9.38502,12.24234 0.25357,1.373567 0.25357,2.781993 0,4.156121 -0.64602,3.503357 -3.55902,6.416347 -9.38502,12.24234 -5.82598,5.82599 -8.73897,8.73843 -12.24232,9.38501 -1.37356,0.25301 -2.78256,0.25301 -4.15612,0 -3.503359,-0.64658 -6.416358,-3.55902 -12.242356,-9.38501 z"
     stroke="currentColor"
     stroke-width="8.43369"
     stroke-linejoin="round"
     id="path2" />
  <path
     d="m 54.256158,32.518224 c 2.776088,-7.627257 4.164161,-11.440857 7.001478,-13.502612 1.192074,-0.866252 2.53989,-1.494731 3.969736,-1.851139 3.403386,-0.848204 7.216537,0.539812 14.843964,3.315901 7.62742,2.776088 11.441136,4.164105 13.502892,7.001477 0.865862,1.192075 1.494449,2.539891 1.850907,3.96968 0.848435,3.403219 -0.53975,7.216819 -3.316121,14.844076 -2.775798,7.627202 -4.163983,11.440689 -7.001081,13.502444 -1.192529,0.866421 -2.540224,1.495012 -3.97001,1.851477 -3.403281,0.847866 -7.216432,-0.539756 -14.843915,-3.316126 -7.627201,-2.776088 -11.440857,-4.164105 -13.502612,-7.001422 -0.866197,-1.19213 -1.494675,-2.539888 -1.851083,-3.969737 -0.848259,-3.403217 0.539756,-7.216817 3.315845,-14.844019 z"
     stroke="currentColor"
     stroke-width="8.43369"
     stroke-linejoin="round"
     id="path3" />
  <path
     style="fill:none;fill-rule:evenodd;stroke:#000000;stroke-width:6.54824;stroke-linecap:round;stroke-linejoin:round"
     id="path4"
     sodipodi:type="arc"
     sodipodi:cx="-61.52573"
     sodipodi:cy="-61.853424"
     sodipodi:rx="0.42068759"
     sodipodi:ry="0.42068759"
     sodipodi:start="0.93731505"
     sodipodi:end="0.9249844"
     sodipodi:open="true"
     sodipodi:arc-type="arc"
     d="m -61.276702,-61.514362 a 0.42068759,0.42068759 0 0 1 -0.587321,-0.08899 0.42068759,0.42068759 0 0 1 0.08718,-0.587593 0.42068759,0.42068759 0 0 1 0.587859,0.08537 0.42068759,0.42068759 0 0 1 -0.08356,0.588119"
     transform="rotate(164.99732)" />
  <path
     style="fill:none;fill-rule:evenodd;stroke:#000000;stroke-width:6.54824;stroke-linecap:round;stroke-linejoin:round"
     id="path5"
     sodipodi:type="arc"
     sodipodi:cx="-55.964909"
     sodipodi:cy="-53.997799"
     sodipodi:rx="0.42068759"
     sodipodi:ry="0.42068759"
     sodipodi:start="0.93731505"
     sodipodi:end="0.9249844"
     sodipodi:open="true"
     sodipodi:arc-type="arc"
     d="m -55.715881,-53.658737 a 0.42068759,0.42068759 0 0 1 -0.587321,-0.08899 0.42068759,0.42068759 0 0 1 0.08718,-0.587592 0.42068759,0.42068759 0 0 1 0.587858,0.08537 0.42068759,0.42068759 0 0 1 -0.08356,0.588119"
     transform="rotate(164.99732)" />
  <path
     style="fill:none;fill-rule:evenodd;stroke:#000000;stroke-width:6.54824;stroke-linecap:round;stroke-linejoin:round"
     id="path6"
     sodipodi:type="arc"
     sodipodi:cx="-65.223442"
     sodipodi:cy="-52.485416"
     sodipodi:rx="0.42068759"
     sodipodi:ry="0.42068759"
     sodipodi:start="0.93731505"
     sodipodi:end="0.9249844"
     sodipodi:open="true"
     sodipodi:arc-type="arc"
     d="m -64.974414,-52.146354 a 0.42068759,0.42068759 0 0 1 -0.587321,-0.08899 0.42068759,0.42068759 0 0 1 0.08718,-0.587592 0.42068759,0.42068759 0 0 1 0.587859,0.08537 0.42068759,0.42068759 0 0 1 -0.08356,0.588118"
     transform="rotate(164.99732)" />
  <path
     style="fill:none;fill-rule:evenodd;stroke:#000000;stroke-width:6.54824;stroke-linecap:round;stroke-linejoin:round"
     id="path7"
     sodipodi:type="arc"
     sodipodi:cx="41.329948"
     sodipodi:cy="91.5756"
     sodipodi:rx="0.42068759"
     sodipodi:ry="0.42068759"
     sodipodi:start="0.93731505"
     sodipodi:end="0.9249844"
     sodipodi:open="true"
     sodipodi:arc-type="arc"
     d="m 41.578976,91.914662 a 0.42068759,0.42068759 0 0 1 -0.587321,-0.08899 0.42068759,0.42068759 0 0 1 0.08718,-0.587592 0.42068759,0.42068759 0 0 1 0.587858,0.08537 0.42068759,0.42068759 0 0 1 -0.08356,0.588119" />
  <path
     style="fill:none;fill-rule:evenodd;stroke:#000000;stroke-width:6.54824;stroke-linecap:round;stroke-linejoin:round"
     id="path8"
     sodipodi:type="arc"
     sodipodi:cx="54.574753"
     sodipodi:cy="91.718781"
     sodipodi:rx="0.42068759"
     sodipodi:ry="0.42068759"
     sodipodi:start="0.93731505"
     sodipodi:end="0.9249844"
     sodipodi:open="true"
     sodipodi:arc-type="arc"
     d="m 54.823781,92.057843 a 0.42068759,0.42068759 0 0 1 -0.587321,-0.08899 0.42068759,0.42068759 0 0 1 0.08718,-0.587592 0.42068759,0.42068759 0 0 1 0.587859,0.08537 0.42068759,0.42068759 0 0 1 -0.08356,0.588118" />
  <path
     style="fill:none;fill-rule:evenodd;stroke:#000000;stroke-width:6.54824;stroke-linecap:round;stroke-linejoin:round"
     id="path9"
     sodipodi:type="arc"
     sodipodi:cx="54.220097"
     sodipodi:cy="105.54156"
     sodipodi:rx="0.42068759"
     sodipodi:ry="0.42068759"
     sodipodi:start="0.93731505"
     sodipodi:end="0.9249844"
     sodipodi:open="true"
     sodipodi:arc-type="arc"
     d="m 54.469124,105.88062 a 0.42068759,0.42068759 0 0 1 -0.58732,-0.089 0.42068759,0.42068759 0 0 1 0.08718,-0.58759 0.42068759,0.42068759 0 0 1 0.587858,0.0854 0.42068759,0.42068759 0 0 1 -0.08355,0.58812" />
  <path
     style="fill:none;fill-rule:evenodd;stroke:#000000;stroke-width:6.54824;stroke-linecap:round;stroke-linejoin:round"
     id="path10"
     sodipodi:type="arc"
     sodipodi:cx="41.329948"
     sodipodi:cy="105.47853"
     sodipodi:rx="0.42068759"
     sodipodi:ry="0.42068759"
     sodipodi:start="0.93731505"
     sodipodi:end="0.9249844"
     sodipodi:open="true"
     sodipodi:arc-type="arc"
     d="m 41.578976,105.81759 a 0.42068759,0.42068759 0 0 1 -0.587321,-0.089 0.42068759,0.42068759 0 0 1 0.08718,-0.58759 0.42068759,0.42068759 0 0 1 0.587858,0.0854 0.42068759,0.42068759 0 0 1 -0.08356,0.58812" />
  <path
     style="fill:none;fill-rule:evenodd;stroke:#000000;stroke-width:6.54824;stroke-linecap:round;stroke-linejoin:round"
     id="path11"
     sodipodi:type="arc"
     sodipodi:cx="105.81512"
     sodipodi:cy="82.161568"
     sodipodi:rx="0.42068759"
     sodipodi:ry="0.42068759"
     sodipodi:start="0.93731505"
     sodipodi:end="0.9249844"
     sodipodi:open="true"
     sodipodi:arc-type="arc"
     d="m 106.06414,82.50063 a 0.42068759,0.42068759 0 0 1 -0.58732,-0.08899 0.42068759,0.42068759 0 0 1 0.0872,-0.587592 0.42068759,0.42068759 0 0 1 0.58786,0.08537 0.42068759,0.42068759 0 0 1 -0.0836,0.588119" />
  <path
     style="fill:none;fill-rule:evenodd;stroke:#000000;stroke-width:6.54824;stroke-linecap:round;stroke-linejoin:round"
     id="path12"
     sodipodi:type="arc"
     sodipodi:cx="105.61163"
     sodipodi:cy="97.91806"
     sodipodi:rx="0.42068759"
     sodipodi:ry="0.42068759"
     sodipodi:start="0.93731505"
     sodipodi:end="0.9249844"
     sodipodi:open="true"
     sodipodi:arc-type="arc"
     d="m 105.86066,98.257123 a 0.42068759,0.42068759 0 0 1 -0.58732,-0.08899 0.42068759,0.42068759 0 0 1 0.0872,-0.587592 0.42068759,0.42068759 0 0 1 0.58786,0.08537 0.42068759,0.42068759 0 0 1 -0.0836,0.588118" />
  <path
     style="fill:none;fill-rule:evenodd;stroke:#000000;stroke-width:6.54824;stroke-linecap:round;stroke-linejoin:round"
     id="path13"
     sodipodi:type="arc"
     sodipodi:cx="90.14167"
     sodipodi:cy="-113.59161"
     sodipodi:rx="0.42068759"
     sodipodi:ry="0.42068759"
     sodipodi:start="0.93731505"
     sodipodi:end="0.9249844"
     sodipodi:open="true"
     sodipodi:arc-type="arc"
     d="m 90.390698,-113.25255 a 0.42068759,0.42068759 0 0 1 -0.587321,-0.089 0.42068759,0.42068759 0 0 1 0.08718,-0.58759 0.42068759,0.42068759 0 0 1 0.587858,0.0854 0.42068759,0.42068759 0 0 1 -0.08356,0.58812"
     transform="rotate(90)" />
  <path
     style="fill:none;fill-rule:evenodd;stroke:#000000;stroke-width:6.54824;stroke-linecap:round;stroke-linejoin:round"
     id="path14"
     sodipodi:type="arc"
     sodipodi:cx="89.938217"
     sodipodi:cy="-97.835152"
     sodipodi:rx="0.42068759"
     sodipodi:ry="0.42068759"
     sodipodi:start="0.93731505"
     sodipodi:end="0.9249844"
     sodipodi:open="true"
     sodipodi:arc-type="arc"
     d="m 90.187245,-97.496089 a 0.42068759,0.42068759 0 0 1 -0.587321,-0.08899 0.42068759,0.42068759 0 0 1 0.08718,-0.587592 0.42068759,0.42068759 0 0 1 0.587858,0.08537 0.42068759,0.42068759 0 0 1 -0.08356,0.588118"
     transform="rotate(90)" />
  <path
     style="fill:none;fill-rule:evenodd;stroke:#000000;stroke-width:6.54824;stroke-linecap:round;stroke-linejoin:round"
     id="path15"
     sodipodi:type="arc"
     sodipodi:cx="47.965694"
     sodipodi:cy="98.234772"
     sodipodi:rx="0.42068759"
     sodipodi:ry="0.42068759"
     sodipodi:start="0.93731505"
     sodipodi:end="0.9249844"
     sodipodi:open="true"
     sodipodi:arc-type="arc"
     d="m 48.214722,98.573834 a 0.42068759,0.42068759 0 0 1 -0.587321,-0.08899 0.42068759,0.42068759 0 0 1 0.08718,-0.587593 0.42068759,0.42068759 0 0 1 0.587858,0.08537 0.42068759,0.42068759 0 0 1 -0.08355,0.588119" />
</svg>
