<?xml version="1.0" encoding="UTF-8" standalone="no"?>
<svg
   viewBox="0 0 512 512"
   version="1.1"
   id="svg2"
   sodipodi:docname="login2.svg"
   inkscape:version="1.4.2 (ebf0e940d0, 2025-05-08)"
   xmlns:inkscape="http://www.inkscape.org/namespaces/inkscape"
   xmlns:sodipodi="http://sodipodi.sourceforge.net/DTD/sodipodi-0.dtd"
   xmlns="http://www.w3.org/2000/svg"
   xmlns:svg="http://www.w3.org/2000/svg">
  <defs
     id="defs2" />
  <sodipodi:namedview
     id="namedview2"
     pagecolor="#ffffff"
     bordercolor="#000000"
     borderopacity="0.25"
     inkscape:showpageshadow="2"
     inkscape:pageopacity="0.0"
     inkscape:pagecheckerboard="0"
     inkscape:deskcolor="#d1d1d1"
     inkscape:zoom="1.5177548"
     inkscape:cx="279.68944"
     inkscape:cy="263.21774"
     inkscape:window-width="1920"
     inkscape:window-height="1080"
     inkscape:window-x="0"
     inkscape:window-y="0"
     inkscape:window-maximized="1"
     inkscape:current-layer="svg2" />
  <path
     d="m 256,48 c -42.9,0 -84.2,13 -119.2,37.5 -34.2,24 -90.651518,58.53735 -75.1,96.1 5.639837,13.62229 28.257843,12.37671 43.9,5.4 15.64216,-6.97671 19.4,-33.9 33.5,-48 31.2,-31.2 72.7,-48.4 116.9,-48.4 44.2,0 85.7,17.2 116.9,48.4 31.2,31.2 48.4,72.7 48.4,116.9 0,44.1 -17.2,85.7 -48.4,116.9 -31.2,31.2 -72.7,48.4 -116.9,48.4 -44.1,0 -85.6,-17.2 -116.9,-48.4 -14,-14 -17.85276,-40.92762 -33.5,-47.9 -15.647241,-6.97238 -38.345627,-8.25208 -44,5.4 -15.55669,37.56051 40.9,72.1 75.1,96.1 C 171.8,451.1 213,464 256,464 370.7,464 464,370.7 464,256 464,141.3 370.7,48 256,48 Z"
     id="path1"
     sodipodi:nodetypes="scacssssssccacsss" />
  <path
     d="m 48,277.4 c 44.712719,44.71272 189.7,0 189.7,0 0,0 -43.72964,23.88628 -43.6,44.7 0.0878,14.09472 15.805,29.9 29.9,29.9 45.25483,0 96,-96 96,-96 0,0 -50.74701,-95.59134 -96,-96 -14.35602,-0.12964 -30.87036,15.54398 -31,29.9 -0.19028,21.07092 44.7,44.7 44.7,44.7 0,0 -144.987281,-44.71272 -189.7,0 -10.088057,10.08806 -10.088057,32.71194 0,42.8 z"
     id="path2"
     sodipodi:nodetypes="scsscsscss" />
</svg>
