<?xml version="1.0" encoding="UTF-8" standalone="no"?>
<svg
   viewBox="0 0 512 512"
   version="1.1"
   id="svg2"
   sodipodi:docname="logout2.svg"
   inkscape:version="1.4.2 (ebf0e940d0, 2025-05-08)"
   xmlns:inkscape="http://www.inkscape.org/namespaces/inkscape"
   xmlns:sodipodi="http://sodipodi.sourceforge.net/DTD/sodipodi-0.dtd"
   xmlns="http://www.w3.org/2000/svg"
   xmlns:svg="http://www.w3.org/2000/svg">
  <defs
     id="defs2" />
  <sodipodi:namedview
     id="namedview2"
     pagecolor="#ffffff"
     bordercolor="#000000"
     borderopacity="0.25"
     inkscape:showpageshadow="2"
     inkscape:pageopacity="0.0"
     inkscape:pagecheckerboard="0"
     inkscape:deskcolor="#d1d1d1"
     inkscape:zoom="1.5769689"
     inkscape:cx="232.09082"
     inkscape:cy="253.33411"
     inkscape:window-width="1920"
     inkscape:window-height="1080"
     inkscape:window-x="0"
     inkscape:window-y="0"
     inkscape:window-maximized="1"
     inkscape:current-layer="svg2" />
  <path
     d="m 192,277.4 c 44.71272,44.71272 189.7,0 189.7,0 0,0 -43.72964,23.88628 -43.6,44.7 0.0878,14.09472 15.805,29.9 29.9,29.9 45.25483,0 96,-50.74517 96,-96 0,-45.25483 -50.74701,-95.59134 -96,-96 -14.35602,-0.12964 -30.87036,15.54398 -31,29.9 -0.19028,21.07092 44.7,44.7 44.7,44.7 0,0 -144.98728,-44.71272 -189.7,0 -10.08806,10.08806 -10.08806,32.71194 0,42.8 z"
     id="path1"
     sodipodi:nodetypes="scssssscss" />
  <path
     d="M 255.7,421.3 C 211.6,421.3 170.2,404.1 139,372.9 107.8,341.7 90.7,300.2 90.7,256 c 0,-44.1 17.2,-85.7 48.3,-116.9 31.2,-31.2 72.6,-48.4 116.7,-48.4 44,0 75.28342,56.40726 116.5,48.2 14.00853,-2.78945 29.07932,-14.48771 30.3,-30.3 C 403.72068,92.787712 386.28552,79.255584 362.75157,66.376162 339.21762,53.49674 298.6,48 255.7,48 249.00248,48 242.37785,48.319226 235.84048,48.943288 130.61568,58.988123 48,148.00921 48,256 c 0,114.7 93.2,208 207.7,208 42.9,0 84.42371,-5.33637 119,-26.71983 12.42856,-7.68635 27.12084,-20.85271 27.7,-33.98017 0.57916,-13.12746 -16.2377,-27.41975 -30.2,-30.2 -41.21658,-8.20726 -72.5,48.2 -116.5,48.2 z m 192.304,-164.453 -0.849,-0.848 0.849,-0.849 0.848,0.849 z"
     id="path2"
     sodipodi:nodetypes="ssscsascssssazasccccc" />
</svg>
