<?xml version="1.0" encoding="UTF-8" standalone="no"?>
<svg
   viewBox="0 0 24 24"
   width="24"
   height="24"
   color="#595858"
   fill="none"
   version="1.1"
   id="svg5"
   sodipodi:docname="nosee.svg"
   inkscape:version="1.4.3 (0d15f75042, 2025-12-25)"
   xmlns:inkscape="http://www.inkscape.org/namespaces/inkscape"
   xmlns:sodipodi="http://sodipodi.sourceforge.net/DTD/sodipodi-0.dtd"
   xmlns="http://www.w3.org/2000/svg"
   xmlns:svg="http://www.w3.org/2000/svg">
  <defs
     id="defs5" />
  <sodipodi:namedview
     id="namedview5"
     pagecolor="#ffffff"
     bordercolor="#000000"
     borderopacity="0.25"
     inkscape:showpageshadow="2"
     inkscape:pageopacity="0.0"
     inkscape:pagecheckerboard="0"
     inkscape:deskcolor="#d1d1d1"
     inkscape:zoom="26.997662"
     inkscape:cx="10.61203"
     inkscape:cy="10.908352"
     inkscape:window-width="1920"
     inkscape:window-height="1080"
     inkscape:window-x="0"
     inkscape:window-y="0"
     inkscape:window-maximized="1"
     inkscape:current-layer="svg5" />
  <path
     d="M19 19.1414C17.1962 20.9097 14.7255 22 12 22C6.47715 22 2 17.5228 2 12C2 6.47715 6.47715 2 12 2C14.7974 2 17.3265 3.14864 19.1414 5"
     stroke="#595858"
     stroke-width="1.5"
     stroke-linecap="round"
     stroke-linejoin="round"
     id="path1"
     style="stroke:#242423;stroke-opacity:1" />
  <path
     d="M8 15C8.91212 16.2144 10.3643 17 12 17C12.7111 17 13.3875 16.8515 14 16.5839"
     stroke="#595858"
     stroke-width="1.5"
     stroke-linecap="round"
     stroke-linejoin="round"
     id="path2"
     style="stroke:#242423;stroke-opacity:1" />
  <path
     d="M8.00897 9L8 9"
     stroke="#595858"
     stroke-width="1.5"
     stroke-linecap="round"
     stroke-linejoin="round"
     id="path3"
     style="stroke:#242423;stroke-opacity:1" />
  <path
     d="M22 15L22 15M22 18L22 18M22 21L22 21"
     stroke="#595858"
     stroke-width="1.5"
     stroke-linecap="round"
     stroke-linejoin="round"
     id="path4"
     style="stroke:#242423;stroke-opacity:1" />
  <circle
     cx="16"
     cy="10"
     r="3"
     stroke="#595858"
     stroke-width="1.5"
     stroke-linecap="round"
     stroke-linejoin="round"
     id="circle4"
     style="stroke:#242423;stroke-opacity:1" />
  <path
     d="M22 12C21.7927 11.6041 21.689 11.4062 21.552 11.2328C21.2015 10.7894 20.6784 10.4407 20.0558 10.2354C19.8124 10.1551 19.5416 10.1034 19 10"
     stroke="#595858"
     stroke-width="1.5"
     stroke-linecap="round"
     stroke-linejoin="round"
     id="path5"
     style="stroke:#242423;stroke-opacity:1" />
  <path
     style="fill:none;fill-opacity:1;fill-rule:evenodd;stroke:#242423;stroke-width:1.717;stroke-linecap:round;stroke-linejoin:bevel;stroke-dasharray:none;stroke-opacity:1"
     d="M 1.6692014,22.06846 C 3.877351,20.002974 20.116505,4.4879105 22.227815,2.3166395"
     id="path8"
     sodipodi:nodetypes="cc" />
</svg>
