<?xml version="1.0" encoding="UTF-8" standalone="no"?>
<svg
   viewBox="0 0 270.17838 344.66107"
   version="1.1"
   id="svg1"
   sodipodi:docname="clr-pkr.svg"
   width="270.17838"
   height="344.66107"
   xmlns:inkscape="http://www.inkscape.org/namespaces/inkscape"
   xmlns:sodipodi="http://sodipodi.sourceforge.net/DTD/sodipodi-0.dtd"
   xmlns="http://www.w3.org/2000/svg"
   xmlns:svg="http://www.w3.org/2000/svg">
  <defs
     id="defs1" />
  <sodipodi:namedview
     id="namedview1"
     pagecolor="#ffffff"
     bordercolor="#000000"
     borderopacity="0.25"
     inkscape:showpageshadow="2"
     inkscape:pageopacity="0.0"
     inkscape:pagecheckerboard="0"
     inkscape:deskcolor="#d1d1d1">
    <inkscape:page
       x="0"
       y="0"
       width="270.17838"
       height="344.66107"
       id="page2"
       margin="0"
       bleed="0" />
  </sodipodi:namedview>
  <path
     d="M 7.9617117,284.14338 C 15.376622,369.32255 263.14547,362.43401 266.83751,277.01245 272.33353,149.85277 272.50716,97.465638 256.02989,29.363758 251.67294,11.356128 109.93957,-17.760665 29.196502,14.478858 -11.356258,79.359878 -0.46086824,187.38847 7.9617117,284.14338 Z M 191.15644,78.665638 c 11.86372,7.37694 18.7245,173.228892 -14.17406,176.121002 -24.05188,2.1144 -4.05655,-82.87722 -22.59123,-81.1593 -21.03027,1.94922 19.94282,114.63911 -19.16646,111.31683 -26.87658,-2.28314 1.13328,-144.78159 -16.40277,-147.75017 -15.45889,-2.61694 -9.23798,144.75618 -32.824818,142.02826 -31.6468,-3.66009 -21.73093,-202.311132 -11.36889,-206.644722 16.24006,-6.79187 96.204788,-6.54915 116.528228,6.0881 z"
     id="path1"
     sodipodi:nodetypes="sssssssssssss" />
</svg>
