<?xml version="1.0" encoding="UTF-8" standalone="no"?>
<svg
   viewBox="0 0 512 512"
   version="1.1"
   id="svg2"
   sodipodi:docname="register.svg"
   inkscape:version="1.4.2 (ebf0e940d0, 2025-05-08)"
   xmlns:inkscape="http://www.inkscape.org/namespaces/inkscape"
   xmlns:sodipodi="http://sodipodi.sourceforge.net/DTD/sodipodi-0.dtd"
   xmlns="http://www.w3.org/2000/svg"
   xmlns:svg="http://www.w3.org/2000/svg">
  <defs
     id="defs2" />
  <sodipodi:namedview
     id="namedview2"
     pagecolor="#ffffff"
     bordercolor="#000000"
     borderopacity="0.25"
     inkscape:showpageshadow="2"
     inkscape:pageopacity="0.0"
     inkscape:pagecheckerboard="0"
     inkscape:deskcolor="#d1d1d1"
     inkscape:zoom="1.862812"
     inkscape:cx="179.56724"
     inkscape:cy="234.32317"
     inkscape:window-width="1920"
     inkscape:window-height="1080"
     inkscape:window-x="0"
     inkscape:window-y="0"
     inkscape:window-maximized="1"
     inkscape:current-layer="svg2" />
  <path
     d="M256 48c-42.9 0-84.2 13-119.2 37.5-34.2 24-60.2 57.2-75.1 96.1L58 192h45.7l1.9-5c8.2-17.8 19.4-33.9 33.5-48 31.2-31.2 72.7-48.4 116.9-48.4s85.7 17.2 116.9 48.4c31.2 31.2 48.4 72.7 48.4 116.9 0 44.1-17.2 85.7-48.4 116.9-31.2 31.2-72.7 48.4-116.9 48.4-44.1 0-85.6-17.2-116.9-48.4-14-14-25.3-30.1-33.5-47.9l-1.9-5H58l3.6 10.4c14.9 38.9 40.9 72.1 75.1 96.1C171.8 451.1 213 464 256 464c114.7 0 208-93.3 208-208S370.7 48 256 48z"
     id="path1" />
  <path
     d="m 234.01084,120 v 189.7 l -44.7,-43.6 -29.9,29.9 96,96 96,-96 -29.9,-31 -44.7,44.7 V 120 Z"
     id="path2" />
</svg>
