<?xml version="1.0" encoding="UTF-8" standalone="no"?>
<svg
   viewBox="0 0 512 512"
   version="1.1"
   id="svg2"
   sodipodi:docname="register2.svg"
   inkscape:version="1.4.2 (ebf0e940d0, 2025-05-08)"
   xmlns:inkscape="http://www.inkscape.org/namespaces/inkscape"
   xmlns:sodipodi="http://sodipodi.sourceforge.net/DTD/sodipodi-0.dtd"
   xmlns="http://www.w3.org/2000/svg"
   xmlns:svg="http://www.w3.org/2000/svg">
  <defs
     id="defs2" />
  <sodipodi:namedview
     id="namedview2"
     pagecolor="#ffffff"
     bordercolor="#000000"
     borderopacity="0.25"
     inkscape:showpageshadow="2"
     inkscape:pageopacity="0.0"
     inkscape:pagecheckerboard="0"
     inkscape:deskcolor="#d1d1d1"
     inkscape:zoom="0.78203884"
     inkscape:cx="330.54624"
     inkscape:cy="349.72688"
     inkscape:window-width="1920"
     inkscape:window-height="1080"
     inkscape:window-x="0"
     inkscape:window-y="0"
     inkscape:window-maximized="1"
     inkscape:current-layer="svg2" />
  <path
     d="m 256,48 c -42.9,0 -84.2,13 -119.2,37.5 -34.2,24 -90.651518,58.53735 -75.1,96.1 5.639837,13.62229 28.257843,12.37671 43.9,5.4 15.64216,-6.97671 19.4,-33.9 33.5,-48 31.2,-31.2 72.7,-48.4 116.9,-48.4 44.2,0 85.7,17.2 116.9,48.4 31.2,31.2 48.4,72.7 48.4,116.9 0,44.1 -17.2,85.7 -48.4,116.9 -31.2,31.2 -72.7,48.4 -116.9,48.4 -44.1,0 -85.6,-17.2 -116.9,-48.4 -14,-14 -15.70286,-39.96963 -33.5,-47.9 -13.497343,-6.01439 -38.345627,-8.25208 -44,5.4 -15.55669,37.56051 40.9,72.1 75.1,96.1 C 171.8,451.1 213,464 256,464 370.7,464 464,370.7 464,256 464,141.3 370.7,48 256,48 Z"
     id="path1"
     sodipodi:nodetypes="scacsssssscaacsss" />
  <path
     d="m 234.01084,120 c -44.71272,44.71272 0,189.7 0,189.7 0,0 -23.88628,-43.72964 -44.7,-43.6 -14.09472,0.0878 -29.9,15.805 -29.9,29.9 0,45.25483 96,96 96,96 0,0 95.59134,-50.74701 96,-96 0.12964,-14.35602 -15.54398,-30.87036 -29.9,-31 -21.07092,-0.19028 -44.7,44.7 -44.7,44.7 0,0 44.71272,-144.98728 0,-189.7 -10.08806,-10.08806 -32.71194,-10.08806 -42.8,0 z"
     id="path2"
     sodipodi:nodetypes="scsscsscss" />
</svg>
